<svg width="410" height="386" viewBox="0 0 410 386" fill="none" xmlns="http://www.w3.org/2000/svg">
<g clip-path="url(#clip0_55_261)">
<path d="M297.399 219.039V325.669L315.223 354.737L316.579 356.948H386.906L388.327 219.039H297.399Z" fill="#E6E6E6"/>
<path opacity="0.1" d="M297.399 219.039V325.669L315.223 354.737L316.317 219.039H297.399Z" fill="black"/>
<path d="M127.62 216.196V322.826L109.797 351.893L108.44 354.104H38.1134L36.6924 216.196H127.62Z" fill="#E6E6E6"/>
<path opacity="0.1" d="M127.62 216.196V322.826L109.797 351.893L108.703 216.196H127.62Z" fill="black"/>
<path d="M409.639 214.064V220.461H27.458V211.22L62.9765 192.737H378.383L409.639 214.064Z" fill="#E6E6E6"/>
<path opacity="0.1" d="M409.639 214.064V220.461H27.458V211.22L409.639 214.064Z" fill="black"/>
<path d="M82.157 246.052H65.1076L58.0039 241.076H89.9709L82.157 246.052Z" fill="#3F3D56"/>
<path d="M82.157 266.667H65.1076L58.0039 261.691H89.9709L82.157 266.667Z" fill="#3F3D56"/>
<path d="M82.157 295.813H65.1076L58.0039 290.837H89.9709L82.157 295.813Z" fill="#3F3D56"/>
<path d="M82.157 324.958H65.1076L58.0039 319.982H89.9709L82.157 324.958Z" fill="#3F3D56"/>
<path d="M342.863 248.895H359.912L367.016 243.919H335.049L342.863 248.895Z" fill="#3F3D56"/>
<path d="M342.863 269.511H359.912L367.016 264.535H335.049L342.863 269.511Z" fill="#3F3D56"/>
<path d="M342.863 298.657H359.912L367.016 293.681H335.049L342.863 298.657Z" fill="#3F3D56"/>
<path d="M342.863 327.802H359.912L367.016 322.826H335.049L342.863 327.802Z" fill="#3F3D56"/>
<path d="M354.473 69.4301H210.945C210.232 69.43 209.526 69.5704 208.867 69.8433C208.209 70.1163 207.61 70.5164 207.106 71.0208C206.602 71.5252 206.202 72.1241 205.93 72.7831C205.657 73.4422 205.517 74.1486 205.517 74.8619V171.614C205.517 172.327 205.657 173.034 205.93 173.693C206.202 174.352 206.602 174.951 207.106 175.455C207.61 175.959 208.209 176.359 208.867 176.632C209.526 176.905 210.232 177.046 210.945 177.046H265.429L263.388 190.087C263.388 190.087 251.723 196.289 259.925 196.471C268.127 196.654 306.769 196.471 306.769 196.471C306.769 196.471 314.242 196.471 302.394 189.905L300.474 177.046H354.473C355.186 177.046 355.892 176.905 356.551 176.632C357.209 176.359 357.808 175.959 358.312 175.455C358.816 174.951 359.216 174.352 359.488 173.693C359.761 173.034 359.902 172.327 359.901 171.614V74.8619C359.902 74.1486 359.761 73.4422 359.488 72.7831C359.216 72.1241 358.816 71.5252 358.312 71.0208C357.808 70.5164 357.209 70.1163 356.551 69.8433C355.892 69.5704 355.186 69.43 354.473 69.4301Z" fill="#3F3D56"/>
<path d="M354.706 75.1757H210.711V155.796H354.706V75.1757Z" fill="#F2F2F2"/>
<path d="M282.709 73.5341C283.213 73.5341 283.621 73.1258 283.621 72.6221C283.621 72.1184 283.213 71.7101 282.709 71.7101C282.206 71.7101 281.798 72.1184 281.798 72.6221C281.798 73.1258 282.206 73.5341 282.709 73.5341Z" fill="#F2F2F2"/>
<path d="M282.709 173.124C284.622 173.124 286.172 171.573 286.172 169.659C286.172 167.745 284.622 166.193 282.709 166.193C280.797 166.193 279.246 167.745 279.246 169.659C279.246 171.573 280.797 173.124 282.709 173.124Z" fill="#F2F2F2"/>
<path d="M277.313 206.321V208.145H179.25V206.686L179.385 206.321L181.802 199.755H275.307L277.313 206.321Z" fill="#3F3D56"/>
<path d="M315.05 204.535C314.871 205.299 314.197 206.106 312.673 206.868C307.205 209.604 296.086 206.138 296.086 206.138C296.086 206.138 287.52 204.679 287.52 200.849C287.76 200.684 288.011 200.535 288.27 200.402C290.569 199.185 298.192 196.182 311.708 200.529C312.704 200.842 313.593 201.425 314.277 202.214C314.58 202.512 314.808 202.878 314.943 203.281C315.077 203.685 315.114 204.115 315.05 204.535Z" fill="#3F3D56"/>
<path opacity="0.1" d="M315.05 204.535C308.357 207.101 302.391 207.293 296.269 203.038C293.953 201.325 291.15 200.401 288.271 200.402C290.569 199.185 298.192 196.182 311.708 200.529C312.704 200.842 313.593 201.425 314.277 202.214C314.58 202.512 314.808 202.878 314.942 203.281C315.077 203.685 315.114 204.115 315.05 204.535Z" fill="black"/>
<path d="M306.658 203.038C307.966 203.038 309.027 202.711 309.027 202.308C309.027 201.905 307.966 201.578 306.658 201.578C305.349 201.578 304.288 201.905 304.288 202.308C304.288 202.711 305.349 203.038 306.658 203.038Z" fill="#F2F2F2"/>
<path opacity="0.1" d="M277.313 206.321V208.145H179.25V206.686L179.385 206.321H277.313Z" fill="black"/>
<path d="M54.524 0.000119615C53.5288 -0.0816497 52.5322 0.141129 51.6664 0.638935C50.8162 1.22155 50.2804 2.24224 49.7334 3.19205C47.6422 6.8669 44.8111 10.0671 41.4194 12.5899C38.949 14.4009 35.8083 16.6591 36.2309 19.9981C36.4539 21.1008 36.861 22.158 37.4351 23.1253C39.714 27.729 45.933 31.2866 45.3213 36.5398C47.5855 32.7466 44.557 30.8709 46.8212 27.0778C47.8995 25.2714 49.7726 23.2323 51.4006 24.3667C51.9457 24.7465 52.3037 25.4278 52.8712 25.7611C54.2255 26.5564 55.6663 25.036 56.8651 23.9591C60.9989 20.2456 66.8775 21.2185 72.0217 22.3755C74.4502 22.9217 77.1176 23.6384 78.5532 25.9611C80.4408 29.0149 76.7599 32.3131 75.8299 35.7658C75.754 36.06 75.7504 36.3682 75.8194 36.6641C75.8885 36.96 76.0281 37.2347 76.2264 37.4648C76.4247 37.695 76.6758 37.8736 76.9581 37.9854C77.2404 38.0973 77.5456 38.1391 77.8476 38.1072C79.3911 37.9548 81.2195 37.8299 81.3109 37.1521C83.2529 37.2213 85.6324 37.0012 86.4644 34.9777C86.7187 34.1771 86.8532 33.3432 86.8633 32.5031C87.1687 29.104 88.6104 26.003 89.5654 22.7679C90.5205 19.5328 90.9357 15.7414 89.324 12.8731C88.7488 11.9187 88.0374 11.0536 87.2124 10.3049C78.0662 1.44765 66.041 -0.0130279 54.524 0.000119615Z" fill="#2F2E41"/>
<path d="M47.3105 43.1748C47.3105 43.1748 49.2996 59.7624 42.0061 61.0895C34.7126 62.4165 48.6365 84.9757 48.6365 84.9757L81.7888 88.9567L73.8322 62.4165C73.8322 62.4165 68.5279 60.4259 71.8431 47.1558C75.1583 33.8857 47.3105 43.1748 47.3105 43.1748Z" fill="#FFB8B8"/>
<path d="M27.0879 328.151L29.7403 364.644H43.6638L39.686 328.151H27.0879Z" fill="#FFB8B8"/>
<path d="M129.196 259.146L131.185 289.667L146.436 283.032L140.468 257.819L129.196 259.146Z" fill="#FFB8B8"/>
<path d="M17.1426 188.814C17.1426 188.814 17.8056 227.298 21.7839 239.904C25.7622 252.511 25.0991 253.175 24.4361 255.165C23.7731 257.156 23.11 255.829 23.11 259.146C23.11 262.464 21.7839 314.881 23.11 319.525C24.4361 324.17 19.1317 332.132 23.11 332.795C27.0883 333.459 45.6535 332.795 46.3166 328.814C46.9796 324.833 41.0122 323.506 43.6644 320.852C46.3166 318.198 50.2949 263.791 50.2949 263.791L59.5775 225.971L76.8166 206.066H113.284L124.556 249.857C124.556 249.857 119.915 262.464 123.23 262.464C126.545 262.464 146.436 266.445 146.436 251.848C146.436 237.25 139.806 194.122 138.48 192.795C137.154 191.468 139.143 186.824 137.154 184.833C135.165 182.843 111.958 168.909 103.338 166.255C94.7189 163.601 82.627 160.442 82.627 160.442L17.1426 188.814Z" fill="#2F2E41"/>
<path d="M146.435 277.724C146.435 277.724 136.49 274.407 131.848 284.359C127.207 294.312 129.196 296.966 129.196 296.966C129.196 296.966 144.446 302.274 147.098 299.62C148.252 298.465 151.916 298.064 155.688 297.979C161.432 297.85 162.961 289.718 157.536 287.824C157.374 287.768 157.21 287.718 157.044 287.677C151.74 286.35 146.435 277.724 146.435 277.724Z" fill="#2F2E41"/>
<path d="M62.2292 54.1226C73.2149 54.1226 82.1206 45.2108 82.1206 34.2174C82.1206 23.2241 73.2149 14.3123 62.2292 14.3123C51.2436 14.3123 42.3379 23.2241 42.3379 34.2174C42.3379 45.2108 51.2436 54.1226 62.2292 54.1226Z" fill="#FFB8B8"/>
<path d="M36.3701 69.3833C36.3701 69.3833 68.8593 76.0183 76.8158 65.4022C84.7723 54.7861 88.0876 95.26 88.0876 95.26L92.0658 137.724L86.0984 160.947C86.0984 160.947 54.9353 186.16 44.9897 188.151C35.044 190.141 19.7939 191.468 19.7939 191.468C19.7939 191.468 24.4353 117.819 24.4353 116.492C24.4353 115.165 36.3701 69.3833 36.3701 69.3833Z" fill="#6C63FF"/>
<path d="M46.2511 56.9394C46.2511 56.9394 39.0225 52.7956 37.0334 56.7766C35.0443 60.7577 16.479 70.7103 14.4899 70.7103C12.5007 70.7103 18.4681 125.781 15.8159 132.416C13.1638 139.051 0.565916 187.487 7.85941 191.468C15.1529 195.449 9.84854 187.487 17.142 197.44C24.4355 207.393 60.2399 207.393 62.2291 203.411C64.2182 199.43 46.316 169.573 49.6312 141.705C52.9465 113.838 58.2508 75.3548 53.6095 70.0468C48.9682 64.7387 46.2511 56.9394 46.2511 56.9394Z" fill="#2F2E41"/>
<path d="M70.1855 61.4212L71.1091 58.2407C71.1091 58.2407 98.6965 67.3928 100.023 73.3643C101.349 79.3359 100.686 121.137 96.0443 124.454C91.403 127.772 84.7725 133.08 89.4139 141.042C94.0552 149.004 99.3595 157.63 103.338 158.293C107.316 158.957 114.61 163.601 112.62 168.246C110.631 172.89 86.7617 164.265 86.7617 164.265C86.7617 164.265 70.8486 152.322 71.5116 133.743C72.1747 115.165 70.1855 61.4212 70.1855 61.4212Z" fill="#2F2E41"/>
<path d="M93.392 139.715L77.479 169.573C77.479 169.573 54.2724 193.459 67.5333 196.113C80.7942 198.767 88.0877 174.217 88.0877 174.217L105.327 149.668L93.392 139.715Z" fill="#FFB8B8"/>
<path d="M55.493 5.20822C54.6913 5.14876 53.8882 5.30464 53.1668 5.65973C52.5145 6.13644 51.9769 6.75296 51.5933 7.46425C49.8247 10.1263 47.5194 12.3889 44.8253 14.1066C42.8143 15.3866 40.2576 16.9826 40.6017 19.3427C40.7885 20.1339 41.1209 20.8835 41.5819 21.5529C43.4435 24.8397 44.1846 28.6437 43.693 32.3895L49.2226 24.3465C50.1004 23.0698 51.6252 21.6286 52.9505 22.4304C53.3942 22.6988 53.6856 23.1804 54.1476 23.4159C55.25 23.978 56.4229 22.9034 57.3988 22.1423C60.7638 19.5176 65.5493 20.2052 69.7368 21.023C71.7138 21.4091 73.8852 21.9156 75.0538 23.5573C76.9959 26.2854 74.968 30.2273 76.1014 33.379C76.4187 33.1567 76.6882 32.8729 76.8938 32.5445C77.0995 32.2161 77.2371 31.8497 77.2986 31.467C78.8795 31.5159 80.8165 31.3604 81.4939 29.9301C81.6999 29.3696 81.8097 28.7783 81.8186 28.1811C82.0672 25.7787 83.2407 23.5869 84.0182 21.3003C84.7956 19.0137 85.1337 16.334 83.8217 14.3067C83.3417 13.6198 82.7624 13.0081 82.1028 12.4916C74.6574 6.23131 64.8683 5.19892 55.493 5.20822Z" fill="#2F2E41"/>
<path d="M93.3922 70.7103L99.5699 72.3512C99.5699 72.3512 113.947 109.194 110.631 134.407C107.316 159.62 105.327 154.312 105.327 154.312C105.327 154.312 100.023 142.369 88.0879 145.023L93.3922 70.7103Z" fill="#2F2E41"/>
<path d="M28.0059 359.821C26.407 361.995 26.7276 365.103 25.3113 367.401C24.0836 369.392 21.7699 370.436 20.2343 372.201C19.7443 372.788 19.3075 373.416 18.929 374.08C17.5045 376.468 16.3466 379.528 17.7496 381.929C18.8782 383.86 21.2504 384.614 23.426 385.129C26.1758 385.779 29.0329 386.299 31.8144 385.802C34.596 385.306 37.3145 383.601 38.3063 380.954C38.5012 380.288 38.7329 379.633 39.0004 378.993C40.508 376.023 45.2369 375.991 46.7799 373.039C47.8597 370.974 46.8671 368.476 45.8749 366.367L42.8446 359.925C41.8389 357.787 37.7622 359.016 35.6369 358.504C32.8651 357.836 30 357.1 28.0059 359.821Z" fill="#2F2E41"/>
<path d="M5.87012 152.985L33.718 196.113C33.718 196.113 50.9572 218.009 56.2615 208.056C61.5659 198.104 37.6963 181.516 37.6963 181.516L19.7941 148.341L5.87012 152.985Z" fill="#FFB8B8"/>
<path d="M19.7943 72.0373L14.4899 70.7103C14.4899 70.7103 3.88118 74.0278 1.22901 87.9614C-1.42317 101.895 0.56596 157.63 3.88118 158.293C7.19641 158.957 20.255 148.589 22.3453 150.787C24.4356 152.985 17.8051 141.705 19.7942 135.734C21.7834 129.762 19.7943 72.0373 19.7943 72.0373Z" fill="#2F2E41"/>
<path d="M269.08 101.654H251.942V105.783H269.08V101.654Z" fill="#6C63FF"/>
<path d="M328.424 101.654H322.395V105.783H328.424V101.654Z" fill="#6C63FF"/>
<path d="M340.484 101.654H334.454V105.783H340.484V101.654Z" fill="#6C63FF"/>
<path d="M316.048 101.654H275.109V105.783H316.048V101.654Z" fill="#6C63FF"/>
<path d="M247.499 128.33H230.362V132.459H247.499V128.33Z" fill="#6C63FF"/>
<path d="M306.844 128.33H300.814V132.459H306.844V128.33Z" fill="#6C63FF"/>
<path d="M318.904 128.33H312.874V132.459H318.904V128.33Z" fill="#6C63FF"/>
<path d="M294.468 128.33H253.529V132.459H294.468V128.33Z" fill="#6C63FF"/>
<path d="M318.269 110.864H301.132V114.992H318.269V110.864Z" fill="#6C63FF"/>
<path d="M341.436 110.864H324.299V114.992H341.436V110.864Z" fill="#6C63FF"/>
<path d="M236.392 110.864H230.362V114.992H236.392V110.864Z" fill="#6C63FF"/>
<path d="M248.452 110.864H242.422V114.992H248.452V110.864Z" fill="#6C63FF"/>
<path d="M295.42 110.864H254.481V114.992H295.42V110.864Z" fill="#6C63FF"/>
<path d="M282.726 119.756H265.589V123.884H282.726V119.756Z" fill="#6C63FF"/>
<path d="M259.559 119.756H242.422V123.884H259.559V119.756Z" fill="#6C63FF"/>
<path d="M236.392 119.756H230.362V123.884H236.392V119.756Z" fill="#6C63FF"/>
<path d="M341.436 119.756H335.406V123.884H341.436V119.756Z" fill="#6C63FF"/>
<path d="M329.377 119.756H288.438V123.884H329.377V119.756Z" fill="#6C63FF"/>
</g>
<defs>
<clipPath id="clip0_55_261">
<rect width="409.638" height="386" fill="white"/>
</clipPath>
</defs>
</svg>
